<mxfile host="app.diagrams.net" modified="2020-07-17T15:25:56.653Z" agent="5.0 (Windows NT 10.0; Win64; x64) AppleWebKit/537.36 (KHTML, like Gecko) Chrome/83.0.4103.116 Safari/537.36" etag="e2GJbK090Tu1UtvFlJoX" version="13.4.4" type="github">
  <diagram id="IWebMUMvC5ChVIndIaqR" name="Page-1">
    <mxGraphModel dx="691" dy="358" grid="1" gridSize="10" guides="1" tooltips="1" connect="1" arrows="1" fold="1" page="1" pageScale="1" pageWidth="850" pageHeight="1100" math="0" shadow="0">
      <root>
        <mxCell id="0" />
        <mxCell id="1" parent="0" />
        <mxCell id="xeU47IazUPWk-IXKemjb-5" value="Install watson assistant&lt;br&gt;Provide access" style="edgeStyle=orthogonalEdgeStyle;rounded=0;orthogonalLoop=1;jettySize=auto;html=1;entryX=0.532;entryY=0.165;entryDx=0;entryDy=0;entryPerimeter=0;" edge="1" parent="1" source="xeU47IazUPWk-IXKemjb-1" target="xeU47IazUPWk-IXKemjb-3">
          <mxGeometry relative="1" as="geometry">
            <Array as="points">
              <mxPoint x="232" y="130" />
            </Array>
          </mxGeometry>
        </mxCell>
        <mxCell id="xeU47IazUPWk-IXKemjb-1" value="&lt;font style=&quot;font-size: 11px&quot;&gt;Administrator&lt;/font&gt;" style="shape=umlActor;verticalLabelPosition=bottom;verticalAlign=top;html=1;outlineConnect=0;" vertex="1" parent="1">
          <mxGeometry x="60" y="100" width="30" height="60" as="geometry" />
        </mxCell>
        <mxCell id="xeU47IazUPWk-IXKemjb-3" value="CP4D Cluster" style="shape=umlLifeline;perimeter=lifelinePerimeter;whiteSpace=wrap;html=1;container=1;collapsible=0;recursiveResize=0;outlineConnect=0;fillColor=#ffe6cc;strokeColor=#d79b00;" vertex="1" parent="1">
          <mxGeometry x="375" y="40" width="100" height="540" as="geometry" />
        </mxCell>
        <mxCell id="xeU47IazUPWk-IXKemjb-4" value="CP4D Cluster" style="shape=umlLifeline;perimeter=lifelinePerimeter;whiteSpace=wrap;html=1;container=1;collapsible=0;recursiveResize=0;outlineConnect=0;fillColor=#ffe6cc;strokeColor=#d79b00;" vertex="1" parent="1">
          <mxGeometry x="560" y="40" width="100" height="540" as="geometry" />
        </mxCell>
      </root>
    </mxGraphModel>
  </diagram>
</mxfile>
